#!OML:ASF H:\Terrain\Patient Classification 1\Animal2\Wednesday\Animal2.ASF
:FULLY-SPECIFIED
:DEGREES
1571
root 9.70961 14.9835 -15.6174 46.8963 8.57856 2.79937
lowerback 46.9693 -0.588184 -0.349284
upperback 0.637907 -0.385044 1.93398
thorax -21.697 0.0306539 2.65533
lowerneck 1.91723 11.952 15.5779
upperneck -34.7179 10.3391 -37.9644
head -6.72522 7.95702 -18.2118
rclavicle -2.38542e-015 -1.60022e-014
rhumerus -61.9762 -23.1218 -1.49634
rradius 16.0572
rwrist 19.6118
rhand -45.0478 14.5898
rfingers 7.12502
rthumb -17.8297 -14.6128
lclavicle -2.38542e-015 -1.60022e-014
lhumerus -61.4274 12.8825 3.61004
lradius 18.6251
lwrist 18.9559
lhand -34.5156 35.1116
lfingers 7.12502
lthumb -7.67726 64.9522
rfemur -94.1287 -11.3184 9.70784
rtibia 74.1762
rfoot -28.4249 -3.57591
rtoes -18.1269
lfemur -97.4462 6.80097 -10.971
ltibia 63.7575
lfoot -14.4334 -10.478
ltoes -24.7974
1572
root 9.70379 14.9866 -15.6192 46.6928 8.94662 3.17305
lowerback 48.644 -0.721629 -0.402717
upperback -0.266724 -0.612229 1.76584
thorax -21.4713 -0.0745723 2.57477
lowerneck 2.42057 11.8378 15.35
upperneck -35.1674 10.2038 -37.5633
head -7.10388 7.92202 -18.1692
rclavicle 2.18663e-015 1.14301e-014
rhumerus -62.1285 -24.4098 -0.760679
rradius 16.117
rwrist 21.1567
rhand -45.6065 14.7144
rfingers 7.12502
rthumb -18.3672 -14.4384
lclavicle 2.18663e-015 1.14301e-014
lhumerus -61.7274 14.1084 3.17235
lradius 18.3828
lwrist 17.4224
lhand -35.164 34.551
lfingers 7.12502
lthumb -8.30303 64.3678
rfemur -93.7377 -11.7057 9.4974
rtibia 74.3198
rfoot -28.5426 -3.60781
rtoes -17.7447
lfemur -97.2446 6.32503 -11.127
ltibia 63.7164
lfoot -14.2292 -10.7005
ltoes -23.624
1573
root 9.70274 14.9739 -15.619 46.8522 9.09899 3.22634
lowerback 49.0135 -0.680263 -0.482947
upperback -0.251348 -0.663403 1.5179
thorax -21.5212 -0.0974792 2.35237
lowerneck 2.78055 11.701 15.3928
upperneck -35.1539 10.1067 -37.285
head -7.24005 7.85979 -18.1151
rclavicle 4.57205e-015 2.98177e-016
rhumerus -62.0743 -24.7434 -1.13696
rradius 16.3395
rwrist 21.3578
rhand -46.0861 14.1699
rfingers 7.12502
rthumb -18.8285 -14.9389
lclavicle 4.57205e-015 2.98177e-016
lhumerus -61.4022 13.4534 4.74726
lradius 18.4577
lwrist 18.4146
lhand -35.7237 34.4101
lfingers 7.12502
lthumb -8.8432 64.2048
rfemur -93.9534 -11.8251 9.5399
rtibia 74.4618
rfoot -28.4817 -3.9452
rtoes -18.007
lfemur -97.4912 6.28242 -11.1664
ltibia 63.747
lfoot -14.2397 -10.6886
ltoes -24.2768
1574
root 9.70198 14.9598 -15.6129 47.0793 9.24698 3.11843
lowerback 49.2332 -0.586576 -0.55022
upperback -0.234577 -0.629852 1.33659
thorax -21.5428 -0.0877294 2.15517
lowerneck 3.07233 11.5792 15.4727
upperneck -35.0172 10.0211 -37.1369
head -7.29538 7.80696 -18.0934
rclavicle 1.92821e-014 -2.79789e-014
rhumerus -61.4663 -24.5861 -2.43667
rradius 16.3411
rwrist 20.3685
rhand -47.0023 14.3715
rfingers 7.12502
rthumb -19.7095 -14.6493
lclavicle 1.92821e-014 -2.79789e-014
lhumerus -60.9368 12.344 7.02943
lradius 18.5739
lwrist 19.9041
lhand -36.2872 34.7436
lfingers 7.12502
lthumb -9.38697 64.5146
rfemur -94.2246 -11.7766 9.62408
rtibia 74.5815
rfoot -28.5373 -4.0112
rtoes -17.5664
lfemur -97.7813 6.37687 -11.0398
ltibia 63.751
lfoot -14.1817 -10.7923
ltoes -24.1668
1575
root 9.70504 14.9539 -15.6058 47.1484 9.50471 2.97051
lowerback 49.5549 -0.504955 -0.501377
upperback -0.105965 -0.527726 1.22564
thorax -21.439 -0.0618801 1.94574
lowerneck 3.50191 11.3724 15.6145
upperneck -35.0787 9.78507 -37.0755
head -7.48232 7.69363 -18.224
rclavicle 0 9.79014e-015
rhumerus -61.3581 -25.464 -2.52828
rradius 16.2582
rwrist 20.6271
rhand -47.9003 15.1216
rfingers 7.12502
rthumb -20.5726 -13.8083
lclavicle 0 9.79014e-015
lhumerus -60.4058 12.1015 8.752
lradius 18.5165
lwrist 20.3222
lhand -36.8586 34.987
lfingers 7.12502
lthumb -9.93824 64.7324
rfemur -94.2459 -11.7217 9.71358
rtibia 74.6565
rfoot -28.7752 -3.53436
rtoes -15.6882
lfemur -97.898 6.39597 -10.7986
ltibia 63.7376
lfoot -14.0604 -11.0527
ltoes -23.0291
1576
root 9.71027 14.9563 -15.5992 47.1539 9.80121 2.92929
lowerback 49.8175 -0.537708 -0.598423
upperback -0.110792 -0.606434 1.27839
thorax -21.4913 -0.0778669 2.09727
lowerneck 4.5156 11.1756 15.3538
upperneck -35.2837 9.57418 -36.7626
head -7.90769 7.63862 -18.2589
rclavicle 3.33958e-014 -3.57812e-015
rhumerus -60.7002 -25.8058 -2.90747
rradius 16.2794
rwrist 20.874
rhand -48.2524 15.5206
rfingers 7.12502
rthumb -20.9109 -13.3723
lclavicle 3.33958e-014 -3.57812e-015
lhumerus -60.9029 11.6142 10.5525
lradius 18.8447
lwrist 21.1783
lhand -37.8337 34.9106
lfingers 7.12502
lthumb -10.8788 64.6088
rfemur -94.1535 -11.7851 9.79245
rtibia 74.6879
rfoot -28.9999 -3.29958
rtoes -14.5233
lfemur -97.9321 6.26208 -10.5995
ltibia 63.7059
lfoot -14.1157 -11.1135
ltoes -23.0938
1577
root 9.71248 14.9638 -15.5905 47.117 9.94248 3.01123
lowerback 50.108 -0.47772 -0.773467
upperback -0.0621613 -0.658436 1.16246
thorax -21.4772 -0.0861986 2.07252
lowerneck 5.35393 10.9543 15.2572
upperneck -35.4008 9.37774 -36.3545
head -8.25767 7.54413 -18.2305
rclavicle -3.97569e-016 -2.23633e-015
rhumerus -60.2375 -25.7681 -4.07316
rradius 16.5212
rwrist 20.1536
rhand -48.2412 15.9327
rfingers 7.12502
rthumb -20.9001 -12.9614
lclavicle -3.97569e-016 -2.23633e-015
lhumerus -61.0376 12.1722 11.7277
lradius 18.8979
lwrist 21.0535
lhand -38.9276 34.9474
lfingers 7.12502
lthumb -11.9339 64.5873
rfemur -93.9615 -11.8166 9.67096
rtibia 74.6897
rfoot -29.1017 -3.41706
rtoes -13.691
lfemur -97.8423 6.06806 -10.5073
ltibia 63.6606
lfoot -14.0394 -11.1486
ltoes -22.1724
1578
root 9.71557 14.9688 -15.579 47.089 9.93844 3.03299
lowerback 50.3024 -0.298241 -1.06572
upperback -0.0144678 -0.632795 1.05213
thorax -21.4475 -0.0558262 2.06783
lowerneck 6.20515 10.7157 15.2745
upperneck -35.3971 9.16209 -36.0964
head -8.54762 7.43954 -18.2786
rclavicle -2.98177e-015 -4.14963e-014
rhumerus -59.7864 -25.6187 -5.30914
rradius 16.8253
rwrist 19.1461
rhand -48.3643 16.6002
rfingers 7.12502
rthumb -21.0184 -12.2808
lclavicle -2.98177e-015 -4.14963e-014
lhumerus -60.6559 10.862 14.9989
lradius 19.1749
lwrist 23.6727
lhand -39.1939 35.1428
lfingers 7.12502
lthumb -12.1906 64.7676
rfemur -93.7852 -11.7073 9.50317
rtibia 74.6567
rfoot -29.0258 -3.74808
rtoes -13.0277
lfemur -97.7335 6.02155 -10.4865
ltibia 63.6347
lfoot -13.9056 -11.3069
ltoes -20.2822
1579
root 9.71905 14.9663 -15.5702 47.2784 10.0482 2.96809
lowerback 50.1966 -0.158449 -1.24843
upperback 0.000723362 -0.584587 0.976495
thorax -21.4081 -0.0257206 2.03947
lowerneck 7.18463 10.4251 15.5356
upperneck -35.3813 8.89177 -36.0198
head -8.84051 7.3007 -18.4967
rclavicle -4.57205e-015 6.70898e-015
rhumerus -59.4751 -25.8203 -5.9782
rradius 16.9639
rwrist 18.7114
rhand -49.0155 17.1382
rfingers 7.12502
rthumb -21.6439 -11.6721
lclavicle -4.57205e-015 6.70898e-015
lhumerus -60.1713 6.35328 21.9869
lradius 20.3279
lwrist 31.5075
lhand -39.4539 35.0972
lfingers 7.12502
lthumb -12.4413 64.707
rfemur -93.8791 -11.6144 9.49016
rtibia 74.6023
rfoot -28.9587 -4.20995
rtoes -13.8456
lfemur -97.9371 6.03749 -10.3874
ltibia 63.6136
lfoot -14.0239 -11.2729
ltoes -20.7919
